<svg xmlns="http://www.w3.org/2000/svg" xmlns:xlink="http://www.w3.org/1999/xlink" width="500" zoomAndPan="magnify" viewBox="0 0 375 374.999991" height="500" preserveAspectRatio="xMidYMid meet" version="1.0"><path fill="#ffffff" d="M 209 11.085938 C 206.183594 17.019531 196.152344 28.519531 188.40625 34.691406 C 180.613281 40.90625 172.519531 45.847656 166.363281 48.15625 C 162.492188 49.601562 160.378906 49.933594 158.6875 49.351562 C 157.972656 49.105469 157.300781 49 157.191406 49.121094 C 156.75 49.609375 155.714844 55.996094 155.4375 59.941406 C 155.023438 65.847656 154.769531 91.058594 155.085938 94.832031 C 155.414062 98.722656 155.050781 100.476562 153.105469 104.347656 C 150.824219 108.894531 150.207031 109.6875 141.859375 118.835938 C 140.148438 120.710938 138.671875 122.554688 138.578125 122.929688 C 138.105469 124.804688 139.882812 126.972656 143.730469 129.21875 C 145.933594 130.507812 147.238281 131.828125 147.238281 132.769531 C 147.238281 133.726562 146.691406 134.554688 144.628906 136.710938 C 141.683594 139.785156 141.929688 140.859375 146.257812 143.792969 C 147.128906 144.382812 147.84375 144.992188 147.84375 145.148438 C 147.84375 145.300781 147.441406 145.636719 146.949219 145.890625 C 145.945312 146.410156 144.515625 148.617188 144.515625 149.648438 C 144.515625 150.78125 145.019531 151.375 147.199219 152.808594 C 149.921875 154.605469 150.003906 154.855469 149.589844 160.234375 C 149.296875 164.085938 149.316406 164.617188 149.8125 165.917969 C 150.453125 167.589844 152.296875 169.707031 153.683594 170.359375 C 156.761719 171.800781 160.589844 171.320312 172.667969 167.964844 C 182.25 165.304688 183.640625 165.121094 184.941406 166.339844 C 187.238281 168.484375 188.402344 172.605469 188.40625 178.625 C 188.40625 183.355469 187.621094 186.996094 185.824219 190.5625 C 183.550781 195.082031 180.769531 197.957031 174.945312 201.808594 C 170.386719 204.824219 159.671875 210.074219 152.234375 212.9375 C 151.234375 213.320312 150.308594 213.730469 150.175781 213.847656 C 150.042969 213.964844 167.207031 214.050781 188.316406 214.03125 L 226.699219 214.003906 L 226.59375 161.339844 C 226.53125 128.996094 226.382812 108.46875 226.207031 108.140625 C 225.425781 106.679688 225.898438 106.710938 204.136719 106.679688 C 192.902344 106.664062 183.273438 106.578125 182.730469 106.488281 L 181.746094 106.328125 L 181.746094 100.417969 L 182.882812 100.230469 C 183.507812 100.128906 191.617188 100.042969 200.90625 100.039062 L 217.792969 100.039062 L 217.671875 65 C 217.546875 27.328125 217.59375 28.472656 215.949219 22.246094 C 214.609375 17.175781 211.011719 9.53125 209.964844 9.53125 C 209.839844 9.53125 209.40625 10.230469 209 11.085938 M 136.644531 226.714844 L 136.644531 232.316406 L 239.273438 232.316406 L 239.191406 226.792969 L 239.109375 221.265625 L 187.875 221.191406 L 136.644531 221.113281 Z M 136.507812 256.683594 C 136.390625 266.503906 136.34375 290.546875 136.394531 310.109375 L 136.496094 345.675781 L 137.203125 347.640625 C 139.378906 353.703125 143.269531 358.460938 148.753906 361.769531 C 151.351562 363.339844 153.355469 364.164062 155.542969 364.566406 C 157.96875 365.011719 215.910156 365.019531 218.644531 364.578125 C 227.59375 363.125 235.925781 355.546875 238.339844 346.671875 C 238.925781 344.515625 238.941406 343.246094 239.023438 291.71875 C 239.070312 262.710938 239.039062 238.972656 238.957031 238.96875 C 238.875 238.964844 215.835938 238.929688 187.761719 238.890625 L 136.714844 238.824219 Z M 136.507812 256.683594 " fill-opacity="1" fill-rule="evenodd"/></svg>